<svg viewBox="0 0 471 335" xmlns="http://www.w3.org/2000/svg"><title>private_illustration_02</title><g id="Page-1" fill="none" fill-rule="evenodd"><g id="ss_privateStackshare_landing_Mar30" transform="translate(-110 -2149)"><g id="private_illustration_02" transform="translate(110 2149)"><path d="M116.946 141.847s1.385 5.365 1.53 7.624l3.52 4.804s-.377 2.228-2.24 3.218c0 0 .49 3.519.585 5.909a4.122 4.122 0 0 1-3.064 4.14l-4.641.409-2.867.625-.492 1.713v4.13h-4.856s.71-10.616-3.198-15.246l-1.279-2.713s11.536-8.132 17.002-14.613" id="Fill-1" fill="#E5E5E5"></path><path d="M81.874 162.354s-4.796-11.728 1.696-22.705c5.885-9.951 26.38-19.653 32.73-6.225 0 0 6.253 10.33-12.866 20.851l-3.49 2.185s16.747 23.662-12.014 33.394c0 0-8.801 4.403-13.227-.562-4.425-4.965 3.328-16.196 5.006-19.309 1.677-3.112 3.229-4.672 2.165-7.629" id="Fill-3" fill="#DBEFFF"></path><path d="M120.72 211.078l6.852 15.084 23.272-15.69s-.489-9.16 6.47-10.207l2.929-.517 3.784-6.005s3.744.418.53 10.699l-2.971 4.923-29.155 30.01s-7.529 5.795-12.32-3.204c-4.79-8.998-7.41-20.245-7.41-20.245l8.019-4.848z" id="Fill-5" fill="#E5E5E5"></path><path d="M213.566 168.1a5.765 5.765 0 1 0 11.53 0 5.765 5.765 0 0 0-11.53 0" id="Fill-7" fill="#DBEFFF"></path><path d="M229.884 169.96a5.765 5.765 0 1 0 11.53 0 5.765 5.765 0 0 0-11.53 0" id="Fill-9" fill="#DBEFFF"></path><path d="M334.965 152.013s2.899 11.266 12.446 8.545l7.533-12.608s6.54-13.306-7.38-23.315c-13.921-10.01-25.615-2.792-24.956 3.67 0 0 .964 6.584 8.41 9.086 0 0-1.647 5.164 1.465 6.397l4.85-2.755s6.136-1.506 3.634 5.147c-2.503 6.653-6.002 5.833-6.002 5.833" id="Fill-11" fill="#E5E5E5"></path><path d="M323.531 154.19l-5.87-1.35s-3.545-4.6 1.58-5.264c0 0 3.055.14 3.367 3.307.312 3.167.923 3.307.923 3.307" id="Fill-13" fill="#E5E5E5"></path><path d="M292.42 196.798l21.473-17.249s2.71-3.512 11.487-3.512h29.925l13.275 7.806s6.699 2.659 9.087 10.677l4.707 15.807s-3.968 5.345-11.567 7.922l-2.227 76.367s-39.184 7.264-62.439-2.014l6.472-74.353-.477-11.075-4.47 3.6-4.515.304-3.744-.864-3.199-3.04-3.9-8.154.112-2.222z" id="Fill-15" fill="#DBEFFF"></path><path d="M208.922 212.863c1.356.446 2.576 1.216 3.472 2.355.325.413.591.853.809 1.313l-1.28-16.291a1.996 1.996 0 0 0-2.14-1.829 1.996 1.996 0 0 0-1.829 2.14l.968 12.312z" id="Fill-17" fill="#E5E5E5"></path><path d="M250.641 248.249h-60.816l-14.073-31.13 24.443 8.645s.948 3.418 3.511 3.418c2.564 0 3.683-1.16 4.313-3.418l37.035-6.714 5.587 29.199z" id="Fill-19" fill="#DBEFFF"></path><path id="Fill-21" fill="#DBEFFF" d="M289.536 37.721v23.193h80.066v31.739h10V37.72z"></path><path d="M367.975 46.602a2.747 2.747 0 1 0 5.493 0 2.747 2.747 0 0 0-5.493 0" id="Fill-23" fill="#FFF"></path><path d="M359.674 46.602a2.747 2.747 0 1 0 5.493 0 2.747 2.747 0 0 0-5.493 0" id="Fill-25" fill="#FFF"></path><path d="M351.373 46.602a2.747 2.747 0 1 0 5.493 0 2.747 2.747 0 0 0-5.493 0" id="Fill-27" fill="#FFF"></path><path id="Fill-29" fill="#E5E5E5" d="M109.277 73.243h104.29v-6.347h-104.29z"></path><path id="Fill-31" fill="#E5E5E5" d="M198.715 118.299h14.851V69.215h-14.85z"></path><path id="Fill-32" fill="#058FFA" d="M275.874 95.378h21.042V77.632h-21.042z"></path><path id="Stroke-33" stroke="#058FFA" stroke-width="1.478" stroke-linecap="round" d="M275.874 95.378h21.042V77.632h-21.042z"></path><path id="Fill-34" fill="#DBEFFF" d="M277.996 119.4l20.941-2.054-1.732-17.662-20.941 2.055z"></path><path id="Fill-35" fill="#E5E5E5" d="M249.096 142.163h21.042v-17.745h-21.042z"></path><path id="Fill-36" fill="#DBEFFF" d="M302.653 118.89h21.042v-17.747h-21.042z"></path><path id="Fill-37" fill="#E5E5E5" d="M15.051 173.308h48.994v-50.3H15.051z"></path><path id="Fill-38" fill="#DBEFFF" d="M97.926 51.088h4.395v-4.395h-4.395z"></path><path id="Fill-39" fill="#DBEFFF" d="M388.954 222.031h46.678V167.01h-46.678z"></path><path id="Fill-40" fill="#E5E5E5" d="M255.591 105.903h9.114v-8.374h-9.114z"></path><path id="Fill-41" fill="#DBEFFF" d="M309.927 81.122l8.485.815.75-7.796-8.486-.815z"></path><path id="Fill-42" fill="#E5E5E5" d="M162.806 123.923H177.7V109.03h-14.893z"></path><path id="Fill-43" fill="#DBEFFF" d="M184.266 145.051h17.954v-17.954h-17.954z"></path><path id="Fill-44" fill="#FFF" d="M21.95 143.12h15.3v-15.3h-15.3z"></path><path id="Fill-45" fill="#FFF" d="M41.528 143.754l15.242-1.327-1.327-15.241-15.242 1.326z"></path><path id="Fill-46" fill="#FFF" d="M397.462 181.945h29.662v-9.87h-29.662z"></path><path id="Fill-47" fill="#FFF" d="M397.669 196.241l29.64-1.176-.392-9.862-29.64 1.176z"></path><path id="Fill-48" fill="#DBEFFF" d="M19.095 333.765h36.78l6.565-20.426H12.53z"></path><path id="Fill-49" fill="#E5E5E5" d="M384.177 333.765h36.78l6.564-20.426h-49.909z"></path><path id="Fill-50" fill="#058FFA" d="M194.961 272.653l57.648 26.049-6.931-39.027-23.79-3.327-11.333 1.709-5.268-3.125-8.228-1.218z"></path><path id="Stroke-51" stroke="#058FFA" stroke-width="1.478" stroke-linecap="round" d="M194.961 272.653l57.648 26.049-6.931-39.027-23.79-3.327-11.333 1.709-5.268-3.125-8.228-1.218-2.098 18.94"></path><path id="Fill-52" fill="#058FFA" d="M180.761 105.968h17.954V88.014h-17.954z"></path><path id="Stroke-53" stroke="#058FFA" stroke-width="1.478" stroke-linecap="round" d="M180.761 105.968h17.954V88.014h-17.954z"></path><path id="Fill-54" fill="#058FFA" d="M255.141 80.51h8.952v-5.758h-8.952z"></path><path id="Stroke-55" stroke="#058FFA" stroke-width="1.478" stroke-linecap="round" d="M255.141 80.51h8.952v-5.758h-8.952z"></path><path id="Fill-56" fill="#058FFA" d="M282.754 127.454l8.846-1.372-.882-5.69-8.846 1.371z"></path><path id="Stroke-57" stroke="#058FFA" stroke-width="1.478" stroke-linecap="round" d="M282.754 127.454l8.846-1.372-.882-5.69-8.846 1.371z"></path><path id="Fill-58" fill="#058FFA" d="M134.17 109.488h21.755v-3.585H134.17z"></path><path id="Stroke-59" stroke="#058FFA" stroke-width="1.478" stroke-linecap="round" d="M134.17 109.488h21.755v-3.585H134.17z"></path><path id="Stroke-61" stroke="#058FFA" stroke-width="1.478" stroke-linecap="round" d="M83.774 332.607l-3.141-22.176"></path><path id="Stroke-63" stroke="#058FFA" stroke-width="1.478" stroke-linecap="round" d="M105.396 332.607l-6.653-23.1"></path><path id="Stroke-65" stroke="#058FFA" stroke-width="1.478" stroke-linecap="round" d="M135.703 332.607l-3.696-31.046"></path><path d="M95.601 182.18s-5.913 10.534-15.523 9.24c-9.61-1.294-8.5-10.164-8.5-10.164s.554-4.99 4.62-10.534c0 0 1.293-1.663 1.293-2.772" id="Stroke-67" stroke="#058FFA" stroke-width="1.478" stroke-linecap="round"></path><path d="M79.709 169.983s1.108-2.402.554-4.805c-.554-2.402-9.61-12.196-1.109-26.61" id="Stroke-69" stroke="#058FFA" stroke-width="1.478" stroke-linecap="round"></path><path d="M102.809 161.852s6.468 15.893-4.99 22.546" id="Stroke-71" stroke="#058FFA" stroke-width="1.478" stroke-linecap="round"></path><path d="M95.417 158.71s7.207-2.956 11.827-7.576" id="Stroke-73" stroke="#058FFA" stroke-width="1.478" stroke-linecap="round"></path><path d="M80.448 141.34s5.174-13.122 17.371-15.34c10.99-1.997 15.378 2.756 16.139 3.716.1.126.2.248.303.37 1.053 1.25 6.16 8.086-.18 16.428 0 0-3.88 4.804-8.316 8.5" id="Stroke-75" stroke="#058FFA" stroke-width="1.478" stroke-linecap="round"></path><path d="M104.657 160.004s-3.881.674-4.713-3.544" id="Stroke-77" stroke="#058FFA" stroke-width="1.478" stroke-linecap="round"></path><path d="M109.277 173.68v-3.881c0-.988.808-1.785 1.796-1.768 3.051.05 8.922-.261 8.922-3.407 0 0 .37-4.62-.37-7.762 0 0 1.436-.86 2.156-2.078a.808.808 0 0 0-.07-.91l-3.194-4.034s-.37-3.696-.924-5.174" id="Stroke-79" stroke="#058FFA" stroke-width="1.478" stroke-linecap="round"></path><path id="Stroke-81" stroke="#058FFA" stroke-width="1.478" stroke-linecap="round" d="M115.745 149.47l.184 1.664"></path><path d="M114.451 237.805s-20.538 1.37-25.872-2.646a1.706 1.706 0 0 1-.653-1.082l-4.782-28.537a20.637 20.637 0 0 1 .776-9.936l.593-1.782" id="Stroke-83" stroke="#058FFA" stroke-width="1.478" stroke-linecap="round"></path><path d="M108.907 244.273s-15.777.072-20.876-2.242a1.503 1.503 0 0 0-1.804.448c-.685.876-1.575 2.286-1.898 4.011L72.73 298.077a4.779 4.779 0 0 0 2.52 5.325c6.793 3.39 23.39 9.72 43.436 3.403l1.999-23.736c.063-.747 1.138-.793 1.265-.054l3.635 21.149a68.809 68.809 0 0 0 8.27-4.451l-8.786-45.543c-.179-.929-.27-1.873-.27-2.818v-5.6" id="Stroke-85" stroke="#058FFA" stroke-width="1.478" stroke-linecap="round"></path><path id="Stroke-87" stroke="#058FFA" stroke-width="1.478" stroke-linecap="round" d="M89.873 238.544l-.555 1.663"></path><path d="M107.244 174.418h2.914c.667 0 1.24.476 1.361 1.132l.714 3.858 5.544 4.435-5.544-4.435 5.544 4.435 9.271 19.207c1.009 2.438 1.225 5.155.517 7.728a11.424 11.424 0 0 1-1.883 3.844" id="Stroke-89" stroke="#058FFA" stroke-width="1.478" stroke-linecap="round"></path><path d="M117.777 183.843l7.947 24.21-13.83 8.362a1.886 1.886 0 0 1-2.777-1.055l-.95-3.058" id="Stroke-91" stroke="#058FFA" stroke-width="1.478" stroke-linecap="round"></path><path id="Stroke-93" stroke="#058FFA" stroke-width="1.478" stroke-linecap="round" d="M128.496 222.466l-4.701-13.101"></path><path d="M163.485 193.822l2.877-13.305a3.57 3.57 0 0 0-3.433-4.325l-29.776-.48a4.619 4.619 0 0 0-4.575 3.582l-4.144 17.992" id="Stroke-95" stroke="#058FFA" stroke-width="1.478" stroke-linecap="round"></path><path id="Stroke-97" stroke="#058FFA" stroke-width="1.478" stroke-linecap="round" d="M127.98 210.471l19.939.607"></path><path id="Stroke-99" stroke="#058FFA" stroke-width="1.478" stroke-linecap="round" d="M133.755 207.733l9.432.287"></path><path d="M157.879 179.053l-23.895-.385c-1.21-.02-2.27.81-2.542 1.99l-2.577 11.501" id="Stroke-101" stroke="#058FFA" stroke-width="1.478" stroke-linecap="round"></path><path id="Stroke-103" stroke="#058FFA" stroke-width="1.478" stroke-linecap="round" d="M138.475 245.751h157.45"></path><path d="M127.425 197.457l6.691-4.468c.496-.319 1.161.016 1.183.605.027.72-.19 2.044-1.179 2.95-1.953 1.79-6.958 6.093-6.958 6.093" id="Stroke-105" stroke="#058FFA" stroke-width="1.478" stroke-linecap="round"></path><path d="M127.572 226.162l21.437-15.892c-2.69-5.612 3.91-10.624 3.91-10.624l4.15-9.277c3.662 2.075.244 9.896.244 9.896l2.93-.517 3.242-5.926s2.013-.727 2.257 2.223c0 1.048-.09 2.093-.27 3.125l-.916 5.272" id="Stroke-107" stroke="#058FFA" stroke-width="1.478" stroke-linecap="round"></path><path d="M162.92 200.067l-1.333 8.113c-.08.487-.318.935-.678 1.274l-3.03 2.848-24.855 26.503c-3.942 4.204-10.931 2.778-12.912-2.634l-7.41-20.245" id="Stroke-109" stroke="#058FFA" stroke-width="1.478" stroke-linecap="round"></path><path d="M127.425 204.093h3.142c1.039 0 1.537 1.287.76 1.976-.69.611-1.744 1.167-3.347 1.329" id="Stroke-111" stroke="#058FFA" stroke-width="1.478" stroke-linecap="round"></path><path d="M372.033 201.783l-3.662 4.943-2.563 87.89s-38.086 6.043-62.439-2.014l6.268-70.264c.304-3.41.275-6.84-.087-10.242" id="Stroke-113" stroke="#058FFA" stroke-width="1.478" stroke-linecap="round"></path><path id="Stroke-115" stroke="#058FFA" stroke-width="1.478" stroke-linecap="round" d="M345.483 245.751h14.099"></path><path id="Stroke-117" stroke="#058FFA" stroke-width="1.478" stroke-linecap="round" d="M347.375 306.396l-6.347 5.615-7.624 20.596"></path><path id="Stroke-119" stroke="#058FFA" stroke-width="1.478" stroke-linecap="round" d="M305.893 293.374l-8.2 39.233"></path><path id="Stroke-121" stroke="#058FFA" stroke-width="1.478" stroke-linecap="round" d="M359.932 300.459l-4.561 33.342"></path><path d="M317.875 202.19h-3.01l-8.017 7.264c-2.829 2.563-7.048 2.893-10.213.76-1.719-1.159-3.422-2.876-4.638-5.42-3.581-7.487-2.198-12.814-2.198-12.814l18.352-14.905a20.573 20.573 0 0 1 12.972-4.604h14.832" id="Stroke-123" stroke="#058FFA" stroke-width="1.478" stroke-linecap="round"></path><path d="M352.723 169.795l-1.482-5.04s-18.473-.356-26.855 7.716" id="Stroke-125" stroke="#058FFA" stroke-width="1.478" stroke-linecap="round"></path><path d="M354.944 172.47l12.086 7.622a13.82 13.82 0 0 1 5.875 7.747l6.697 22.489s-1.77 4.856-11.567 7.92" id="Stroke-127" stroke="#058FFA" stroke-width="1.478" stroke-linecap="round"></path><path d="M376.989 213.598l4.099 17.795a8.044 8.044 0 0 1-.456 4.998c-1.832 4.238-5.933 14.138-11.03 22.152" id="Stroke-129" stroke="#058FFA" stroke-width="1.478" stroke-linecap="round"></path><path id="Stroke-131" stroke="#058FFA" stroke-width="1.478" stroke-linecap="round" d="M283.452 200.606l6.085-4.927"></path><path d="M296.839 213.013l-6.347 5.047c-4.666 3.71-11.597 1.81-13.709-3.764l-.208-.55c-3.174-8.423-7.69-41.87-7.69-41.87s-3.744-1.831-4.639-7.121l-.488-3.5-.74-1.014a6.966 6.966 0 0 1-1.33-4.465l-.01-.81a3.627 3.627 0 0 1 1.823-2.962l6.564-3.48" id="Stroke-133" stroke="#058FFA" stroke-width="1.478" stroke-linecap="round"></path><path d="M288.155 196.798l-9.18-29.512-2.6-16.528-5.929-14.185s-2.967 3.862-1.014 9.559l1.423 5.568-6.259 3.615" id="Stroke-135" stroke="#058FFA" stroke-width="1.478" stroke-linecap="round"></path><path d="M276.423 151.057l1.57-1.82 2.08 5.17c1.34 3.33.939 7.14-1.171 10.045-.073.1-.148.2-.225.3" id="Stroke-137" stroke="#058FFA" stroke-width="1.478" stroke-linecap="round"></path><path d="M317.635 154.864s-2.382 6.372 1.668 7.027l3.78.614c1.812.296 3.566.897 5.144 1.835 1.337.795 2.726 1.923 3.61 3.464" id="Stroke-139" stroke="#058FFA" stroke-width="1.478" stroke-linecap="round"></path><path d="M324.21 154.314l-5.396-.981a2.823 2.823 0 0 1-2.279-3.245c.317-1.892 2.4-2.945 4.09-2.038.831.446 1.563 1.129 1.874 2.173 0 0 .342 2.678 1.795 3.91.081.07.02.2-.084.18z" id="Stroke-141" stroke="#058FFA" stroke-width="1.478" stroke-linecap="round"></path><path d="M322.44 132.657s-1.552 2.31-1.94 3.978c-.112.485-.377.92-.737 1.265-1.289 1.237-4.134 4.24-5.185 7.554a.725.725 0 0 0 .49.915l4.672 1.351" id="Stroke-143" stroke="#058FFA" stroke-width="1.478" stroke-linecap="round"></path><path id="Stroke-145" stroke="#058FFA" stroke-width="1.478" stroke-linecap="round" d="M321.685 139.56l1.846 1.31"></path><path d="M323.525 135.937s2.28.788 3.296 3.623" id="Stroke-147" stroke="#058FFA" stroke-width="1.478" stroke-linecap="round"></path><path d="M332.483 143.788s-2.858-2.234-1.429-6.04c0 0-21.597-12.381 2.7-23.815" id="Stroke-149" stroke="#058FFA" stroke-width="1.478" stroke-linecap="round"></path><path d="M332.88 117.268s9.925-5.479 18.421 1.588" id="Stroke-151" stroke="#058FFA" stroke-width="1.478" stroke-linecap="round"></path><path d="M346.696 118.856s11.91 6.114 13.498 14.53" id="Stroke-153" stroke="#058FFA" stroke-width="1.478" stroke-linecap="round"></path><path d="M354.319 128.305s6.828 7.146 4.208 16.991" id="Stroke-155" stroke="#058FFA" stroke-width="1.478" stroke-linecap="round"></path><path d="M356.722 142.954s-.438 3.682-1.927 6.04c-1.489 2.357-7.384 11.74-7.384 11.74s-6.372 2.561-11.315-6.418" id="Stroke-157" stroke="#058FFA" stroke-width="1.478" stroke-linecap="round"></path><path id="Stroke-159" stroke="#058FFA" stroke-width="1.478" stroke-linecap="round" d="M347.411 160.735l.152 1.954"></path><path d="M335.441 142.001s3.752-2.739 5.36 0c1.608 2.74.119 7.444-5.836 10.422" id="Stroke-161" stroke="#058FFA" stroke-width="1.478" stroke-linecap="round"></path><path id="Stroke-163" stroke="#058FFA" stroke-width="1.478" stroke-linecap="round" d="M335.53 147.72l1.804-2.097"></path><path d="M208.752 156.617s-1.227-12.126 10.735-13.753" id="Stroke-165" stroke="#058FFA" stroke-width="1.478" stroke-linecap="round"></path><path d="M217.941 145.142s2.848-6.998 13.184-6.673c10.335.326 12.45 9.359 12.45 9.359" id="Stroke-167" stroke="#058FFA" stroke-width="1.478" stroke-linecap="round"></path><path d="M254.25 164.753s-.37-16.228-11.256-18.547" id="Stroke-169" stroke="#058FFA" stroke-width="1.478" stroke-linecap="round"></path><path d="M205.009 175.712s-7.569-6.312-.896-13.64c0 0-.57-3.665 2.605-5.455" id="Stroke-171" stroke="#058FFA" stroke-width="1.478" stroke-linecap="round"></path><path d="M256.408 164.052s2.711 15.148-9.652 20.456" id="Stroke-173" stroke="#058FFA" stroke-width="1.478" stroke-linecap="round"></path><path d="M203.995 177.428s3.8 5.03 8.153 7.05" id="Stroke-175" stroke="#058FFA" stroke-width="1.478" stroke-linecap="round"></path><path d="M248.133 186.24s-3.215 2.766-9.888 3.132" id="Stroke-177" stroke="#058FFA" stroke-width="1.478" stroke-linecap="round"></path><path d="M218.447 190.626c-3.242-.948-6.327-2.453-8.725-4.794" id="Stroke-179" stroke="#058FFA" stroke-width="1.478" stroke-linecap="round"></path><path d="M237.757 191.573s-2.464.407-6.04.511" id="Stroke-181" stroke="#058FFA" stroke-width="1.478" stroke-linecap="round"></path><path d="M212.58 164.961a5.911 5.911 0 1 0 11.73 1.472 5.911 5.911 0 0 0-11.73-1.472z" id="Stroke-183" stroke="#058FFA" stroke-width="1.478" stroke-linecap="round"></path><path d="M228.468 166.955a5.911 5.911 0 1 0 11.731 1.473 5.911 5.911 0 0 0-11.73-1.473z" id="Stroke-185" stroke="#058FFA" stroke-width="1.478" stroke-linecap="round"></path><path d="M229.33 164.544a5.881 5.881 0 0 0-2.53-.937 5.884 5.884 0 0 0-2.723.296" id="Stroke-187" stroke="#058FFA" stroke-width="1.478" stroke-linecap="round"></path><path id="Stroke-189" stroke="#058FFA" stroke-width="1.478" stroke-linecap="round" d="M240.24 167.462l1.738.219"></path><path d="M224.542 159.405c1.012-.47 2.06-1.137 2.747-2.059.258-.345.864-.32.984.093.333 1.15 1.41 2.615 3.872 4.654" id="Stroke-191" stroke="#058FFA" stroke-width="1.478" stroke-linecap="round"></path><path d="M224.848 171.448l-.992 2.985a.367.367 0 0 0 .31.464l2.274.274" id="Stroke-193" stroke="#058FFA" stroke-width="1.478" stroke-linecap="round"></path><path d="M225.14 178.796s2.302 0 4.519.093c.227.01.29.319.083.416l-2.11.997" id="Stroke-195" stroke="#058FFA" stroke-width="1.478" stroke-linecap="round"></path><path d="M181.098 249.306c-1.446 3.273-.315 7.229 2.795 9.199 3.421 2.167 7.995 1.142 10.162-2.28l1.612-2.544" id="Stroke-197" stroke="#058FFA" stroke-width="1.478" stroke-linecap="round"></path><path id="Stroke-199" stroke="#058FFA" stroke-width="1.478" stroke-linecap="round" d="M185.537 232.499l-2.649 10.03"></path><path d="M219.487 184.508l-1.546 9.096-16.044 5.416a14.874 14.874 0 0 0-8.969 8.362l-2.063 4.942" id="Stroke-201" stroke="#058FFA" stroke-width="1.478" stroke-linecap="round"></path><path d="M231.531 192.09v2.43l12.115 4.027a14.874 14.874 0 0 1 8.874 8.013l8.064 17.927-7.722 5.181" id="Stroke-203" stroke="#058FFA" stroke-width="1.478" stroke-linecap="round"></path><path id="Stroke-205" stroke="#058FFA" stroke-width="1.478" stroke-linecap="round" d="M231.531 185.832v6.257"></path><path d="M207.005 203.498c-1.946-1.151-3.68-2.622-5.108-4.478" id="Stroke-207" stroke="#058FFA" stroke-width="1.478" stroke-linecap="round"></path><path d="M246.756 203.247s-21.668 7.355-36.2 1.933" id="Stroke-209" stroke="#058FFA" stroke-width="1.478" stroke-linecap="round"></path><path d="M214.578 174.638c1.836 6.727 5.969 11.247 10.717 11.88 5.125.682 10.743-3.192 14.262-10.14" id="Stroke-211" stroke="#058FFA" stroke-width="1.478" stroke-linecap="round"></path><path d="M239.108 174.442s.414 1.74 1.483 3.19" id="Stroke-213" stroke="#058FFA" stroke-width="1.478" stroke-linecap="round"></path><path id="Stroke-215" stroke="#058FFA" stroke-width="1.478" stroke-linecap="round" d="M272.506 60.914h97.096v109.07"></path><path id="Stroke-217" stroke="#058FFA" stroke-width="1.478" stroke-linecap="round" d="M237.138 60.914h23.905"></path><path id="Stroke-219" stroke="#058FFA" stroke-width="1.478" stroke-linecap="round" d="M72.613 104.92V60.915h153.519"></path><path id="Stroke-221" stroke="#058FFA" stroke-width="1.478" stroke-linecap="round" d="M72.613 132.657v-15.102"></path><path id="Stroke-223" stroke="#058FFA" stroke-width="1.478" stroke-linecap="round" d="M197.06 253.714l-8.741 78.893"></path><path id="Stroke-225" stroke="#058FFA" stroke-width="1.478" stroke-linecap="round" d="M245.678 259.674l12.953 72.933"></path><path d="M183.346 213.712l14.99 5.607s3.41-6.347 10.979-6.387l3.906 3.756.864 3.039" id="Stroke-227" stroke="#058FFA" stroke-width="1.478" stroke-linecap="round"></path><path id="Stroke-229" stroke="#058FFA" stroke-width="1.478" stroke-linecap="round" d="M216.639 219.442l26.55-6.51.387 1.69"></path><path d="M191.528 245.751l-14.073-31.129 24.442 8.645a3.418 3.418 0 0 0 3.418 3.418h.989a3.418 3.418 0 0 0 3.418-3.418v-.244l37.034-6.47 5.587 29.198" id="Stroke-231" stroke="#058FFA" stroke-width="1.478" stroke-linecap="round"></path><path d="M263.093 249.306c1.385 6.408-4.03 12.24-10.523 11.332l-30.682-4.29-11.333 1.709-5.268-3.126-9.997-1.48-1.732-3.544" id="Stroke-233" stroke="#058FFA" stroke-width="1.478" stroke-linecap="round"></path><path id="Stroke-235" stroke="#058FFA" stroke-width="1.478" stroke-linecap="round" d="M258.088 226.162l4.2 19.425"></path><path id="Stroke-237" stroke="#058FFA" stroke-width="1.478" stroke-linecap="round" d="M208.071 221.314l.645-5.399"></path><path d="M211.263 214.804l-.875-11.907a1.714 1.714 0 0 0-1.83-1.58 1.714 1.714 0 0 0-1.579 1.83l.727 9.892" id="Stroke-239" stroke="#058FFA" stroke-width="1.478" stroke-linecap="round"></path><path id="Stroke-241" stroke="#058FFA" stroke-width="1.478" stroke-linecap="round" d="M203.995 229.981l5.727 15.77"></path><path id="Stroke-243" stroke="#058FFA" stroke-width="1.478" stroke-linecap="round" d="M208.339 250.407l1.506 4.067"></path><path id="Stroke-245" stroke="#058FFA" stroke-width="1.478" stroke-linecap="round" d="M124.434 141.847h74.281V73.243h-95.48V118.3"></path><path id="Stroke-247" stroke="#058FFA" stroke-width="1.478" stroke-linecap="round" d="M249.096 95.378h21.042V77.632h-21.042z"></path><path id="Stroke-249" stroke="#058FFA" stroke-width="1.478" stroke-linecap="round" d="M301.853 94.331l20.945 2.012 1.697-17.665-20.946-2.012z"></path><path id="Stroke-250" stroke="#058FFA" stroke-width="1.478" stroke-linecap="round" d="M249.096 118.89h21.042v-17.747h-21.042z"></path><path id="Stroke-251" stroke="#058FFA" stroke-width="1.478" stroke-linecap="round" d="M277.996 142.594l20.941-2.054-1.732-17.662-20.941 2.055z"></path><path d="M146.657 171.385s-.062-.693.042-1.789" id="Stroke-252" stroke="#058FFA" stroke-width="1.433" stroke-linecap="round"></path><path d="M147.911 164.997c1.132-2.513 3.252-5.236 7.205-7.094 4.723-2.22 6.852-5.212 7.804-7.613" id="Stroke-253" stroke="#058FFA" stroke-width="1.433" stroke-linecap="round" stroke-dasharray="3.184843015670777,4.777264785766602"></path><path d="M163.556 147.992c.174-1.09.105-1.785.105-1.785" id="Stroke-254" stroke="#058FFA" stroke-width="1.433" stroke-linecap="round"></path><path d="M90.907 112.976s-.661.018-1.847.003" id="Stroke-255" stroke="#058FFA" stroke-width="1.478" stroke-linecap="round"></path><path d="M83.65 112.758c-16.127-1.071-53.533-7.054-53.533-39.515 0-33.702 33.364-38.984 45.747-39.784" id="Stroke-256" stroke="#058FFA" stroke-width="1.478" stroke-linecap="round" stroke-dasharray="3.610437941551209,5.415748310089112"></path><path d="M78.571 33.336c1.18-.029 1.847-.01 1.847-.01" id="Stroke-257" stroke="#058FFA" stroke-width="1.478" stroke-linecap="round"></path><path d="M177.577 31.618s.694-.057 1.847-.025" id="Stroke-258" stroke="#058FFA" stroke-width="1.478" stroke-linecap="round"></path><path d="M185.096 32.337c6.229 1.481 14.318 5.782 15.966 18.013" id="Stroke-259" stroke="#058FFA" stroke-width="1.478" stroke-linecap="round" stroke-dasharray="3.82037034034729,5.73046293258667"></path><path d="M201.32 53.208c.028.599.043 1.215.043 1.847" id="Stroke-260" stroke="#058FFA" stroke-width="1.478" stroke-linecap="round"></path><path d="M217.941 91.92s.703-.114 1.789-.458" id="Stroke-261" stroke="#058FFA" stroke-width="1.478" stroke-linecap="round"></path><path d="M224.647 89.083c3.427-2.34 6.885-6.499 6.885-13.764 0-14.405-3.418-64.453 42.724-64.453 0 0 27.485-2.597 31.3 16.155" id="Stroke-262" stroke="#058FFA" stroke-width="1.478" stroke-linecap="round" stroke-dasharray="3.653681015968323,5.480428552627564"></path><path d="M305.927 29.735c.044.598.067 1.213.067 1.848" id="Stroke-263" stroke="#058FFA" stroke-width="1.478" stroke-linecap="round"></path><path d="M282.557 48.22s-.7.082-1.813.356" id="Stroke-264" stroke="#058FFA" stroke-width="1.478" stroke-linecap="round"></path><path d="M274.765 50.967c-4.191 2.424-8.555 6.904-8.8 15.082" id="Stroke-265" stroke="#058FFA" stroke-width="1.478" stroke-linecap="round" stroke-dasharray="4.306948685646057,6.460422897338868"></path><path id="Stroke-266" stroke="#058FFA" stroke-width="1.478" stroke-linecap="round" d="M265.955 69.28v1.848"></path><path id="Stroke-267" stroke="#058FFA" stroke-width="1.478" stroke-linecap="round" d="M103.234 88.014h95.481v-14.77h-95.48z"></path><path id="Stroke-268" stroke="#058FFA" stroke-width="1.478" stroke-linecap="round" d="M87.673 56.581h82.397v-15.38H87.673z"></path><path id="Stroke-269" stroke="#058FFA" stroke-width="1.478" stroke-linecap="round" d="M87.673 36.073h82.397v-15.38H87.673z"></path><path id="Fill-270" fill="#DBEFFF" d="M87.673 15.566h82.397V.185H87.673z"></path><path id="Stroke-271" stroke="#058FFA" stroke-width="1.478" stroke-linecap="round" d="M387.78 39.918h47.852"></path><path id="Stroke-272" stroke="#058FFA" stroke-width="1.478" stroke-linecap="round" d="M387.78 45.978h42.908"></path><path id="Stroke-273" stroke="#058FFA" stroke-width="1.478" stroke-linecap="round" d="M387.78 51.852h17.395"></path><path id="Stroke-274" stroke="#058FFA" stroke-width="1.478" stroke-linecap="round" d="M387.78 57.912h29.053"></path><path d="M400.937 68.291v6.592s-1.22 11.596 12.94 15.259c14.16 3.662 24.413 16.706 19.835 35.055-4.577 18.35-36.814 32.815-54.295 32.815" id="Stroke-275" stroke="#058FFA" stroke-width="1.478" stroke-linecap="round" stroke-dasharray="3.695999884605408,5.543999958038331"></path><path id="Stroke-276" stroke="#058FFA" stroke-width="1.655" stroke-linecap="round" d="M109.277 100.927h21.756v-3.585h-21.756z"></path><path id="Stroke-277" stroke="#058FFA" stroke-width="1.655" stroke-linecap="round" d="M109.277 109.488h21.756v-3.585h-21.756z"></path><path id="Stroke-278" stroke="#058FFA" stroke-width="1.655" stroke-linecap="round" d="M134.17 100.927h21.755v-3.585H134.17z"></path><path id="Stroke-279" stroke="#058FFA" stroke-width="1.655" stroke-linecap="round" d="M134.17 109.488h21.755v-3.585H134.17z"></path><path id="Stroke-280" stroke="#058FFA" stroke-width="1.478" stroke-linecap="round" d="M180.761 105.968h17.954V88.014h-17.954z"></path><path id="Stroke-281" stroke="#058FFA" stroke-width="1.478" stroke-linecap="round" d="M162.806 105.968h17.955V88.014h-17.955z"></path><path id="Stroke-282" stroke="#058FFA" stroke-width="1.478" stroke-linecap="round" d="M180.761 123.923h17.954v-17.955h-17.954z"></path><path id="Stroke-283" stroke="#058FFA" stroke-width="1.478" stroke-linecap="round" d="M162.806 123.923h17.955v-17.955h-17.955z"></path><path id="Stroke-284" stroke="#058FFA" stroke-width="1.478" stroke-linecap="round" d="M180.761 141.877h17.954v-17.954h-17.954z"></path><path id="Stroke-285" stroke="#058FFA" stroke-width="1.478" stroke-linecap="round" d="M162.806 141.877h17.955v-17.954h-17.955z"></path><path id="Stroke-286" stroke="#058FFA" stroke-width="1.478" stroke-linecap="round" d="M162.806 48.891h-50.048"></path><path id="Stroke-287" stroke="#058FFA" stroke-width="1.478" stroke-linecap="round" d="M112.758 26.46h50.048"></path><path id="Stroke-288" stroke="#058FFA" stroke-width="1.478" stroke-linecap="round" d="M112.758 30.306h31.494"></path><path id="Stroke-289" stroke="#058FFA" stroke-width="1.478" stroke-linecap="round" d="M97.926 30.855h4.395V26.46h-4.395z"></path><path d="M401.195 306.802s-9.766-1.997-11.475-10.298c-1.029-4.996-3.207-7.61-4.779-8.9-.317-.26-.051-.767.345-.661 4.303 1.147 13.885 4.851 17.933 15.665" id="Stroke-290" stroke="#058FFA" stroke-width="1.478" stroke-linecap="round"></path><path d="M405.59 298.702s.243-16.114-10.255-24.659c-10.498-8.544 0-21.972 0-21.972s1.276-2.593.045-6.06c-.206-.58.527-1.026.939-.568 4.65 5.185 12.594 16.526 10.49 31.774" id="Stroke-291" stroke="#058FFA" stroke-width="1.478" stroke-linecap="round"></path><path d="M409.237 295.238s-3.716-43.252 28.255-55.867c4.286-1.691 8.825-2.646 13.424-2.928 4.484-.275 12.714-.953 18.311-2.438.77-.205 1.32.734.764 1.305-4.227 4.347-11.228 12.442-21.301 16.273-9.67 3.677-27.1 13.183-32.715 24.658" id="Stroke-292" stroke="#058FFA" stroke-width="1.478" stroke-linecap="round"></path><path d="M408.704 306.802s6.432-35.697 51.123-37.788c1.4-.065 2.16 1.614 1.194 2.628-3.446 3.615-11.04 10.127-24.67 12.98-16.71 3.497-20.923 12.018-20.923 12.018" id="Stroke-293" stroke="#058FFA" stroke-width="1.478" stroke-linecap="round"></path><path d="M398.913 252.803s4.357 8.98 5.09 16.21" id="Stroke-294" stroke="#058FFA" stroke-width="1.478" stroke-linecap="round"></path><path d="M433.675 249.874s9.961-8.972 27.594-11.17" id="Stroke-295" stroke="#058FFA" stroke-width="1.478" stroke-linecap="round"></path><path id="Stroke-296" stroke="#058FFA" stroke-width="1.478" stroke-linecap="round" d="M387.942 333.825l-7.002-22.888h51.427l-7.002 22.888"></path><path id="Stroke-297" stroke="#058FFA" stroke-width="1.478" stroke-linecap="round" d="M14.732 333.825l-7.003-22.888h51.428l-7.002 22.888"></path><path d="M21.467 306.028s-27.122-4.842-15.808-28.14a4.437 4.437 0 0 0-.802-5.019c-2.927-3.041-6.867-9.068-1.206-15.874a4.444 4.444 0 0 0 .05-5.625c-2.37-2.97-4.8-8.08-.928-14.231a4.42 4.42 0 0 0 .413-3.843c-1.342-3.76-2.772-11.298 7.692-10.62 9.427.61 8.266 6.427 6.546 10.105a4.37 4.37 0 0 0 .958 5.022c1.902 1.788 4.132 4.797 4.292 9.162a4.44 4.44 0 0 0 3.493 4.18c3.538.773 7.971 3.309 6.217 11.35-.468 2.146.682 4.326 2.74 5.096 5.558 2.08 14.28 8.183 8.077 25.525 0 0-2.675 6.25-2.387 11.668" id="Stroke-298" stroke="#058FFA" stroke-width="1.478" stroke-linecap="round"></path><path d="M11.9 242.857a79.204 79.204 0 0 1-1.32-8.273" id="Stroke-299" stroke="#058FFA" stroke-width="1.478" stroke-linecap="round"></path><path d="M34.2 305.271s-1.626-22.04-13.218-38.838c-4.292-6.22-6.887-13.07-8.452-19.229" id="Stroke-300" stroke="#058FFA" stroke-width="1.478" stroke-linecap="round"></path><path d="M42.848 267.84s.787-10.231 10.254-8.577c0 0 1.937-8.316 9.464-4.861 7.526 3.455-1.685 12.479-1.685 12.479s-2.813 3.397-1.157 7.042c1.657 3.644 4.412 10.587-3.835 17.773s-6.223 14.094-6.223 14.094" id="Stroke-301" stroke="#058FFA" stroke-width="1.478" stroke-linecap="round"></path><path d="M49.176 288.253s6.169-8.24 5.652-16.24c-.518-8 1.904-9.62 1.904-9.62" id="Stroke-302" stroke="#058FFA" stroke-width="1.478" stroke-linecap="round"></path><path id="Stroke-303" stroke="#058FFA" stroke-width="1.478" stroke-linecap="round" d="M201.02 250.407l4.267 4.524"></path></g></g></g></svg>